<svg width="512" height="512" viewBox="0 0 512 512" fill="none" xmlns="http://www.w3.org/2000/svg">
<path d="M0 204.8C0 133.113 0 97.2699 13.9512 69.8892C26.223 45.8045 45.8045 26.223 69.8892 13.9512C97.2699 0 133.113 0 204.8 0H307.2C378.887 0 414.73 0 442.111 13.9512C466.195 26.223 485.777 45.8045 498.049 69.8892C512 97.2699 512 133.113 512 204.8V307.2C512 378.887 512 414.73 498.049 442.111C485.777 466.195 466.195 485.777 442.111 498.049C414.73 512 378.887 512 307.2 512H204.8C133.113 512 97.2699 512 69.8892 498.049C45.8045 485.777 26.223 466.195 13.9512 442.111C0 414.73 0 378.887 0 307.2V204.8Z" fill="url(#paint0_linear)"/>
<circle opacity="0.6" cx="213.333" cy="213.333" r="21.3333" fill="white"/>
<circle cx="170.667" cy="256.001" r="106.667" stroke="white" stroke-width="21.3333"/>
<circle cx="405.333" cy="256.001" r="42.6667" fill="#00FF00"/>
<defs>
<linearGradient id="paint0_linear" x1="-52.3636" y1="570.182" x2="512" y2="8.58307e-06" gradientUnits="userSpaceOnUse">
<stop/>
<stop offset="1" stop-color="#31404E"/>
</linearGradient>
</defs>
</svg>
